<svg viewBox="0 0 320 260" xmlns="http://www.w3.org/2000/svg">
  <rect x="0" y="0" width="320" height="260" fill="white"/>
  <line x1="34.0" y1="16" x2="34.0" y2="230" stroke="#e5e5e5" stroke-width="1"/><line x1="52.0" y1="16" x2="52.0" y2="230" stroke="#e5e5e5" stroke-width="1"/><line x1="70.0" y1="16" x2="70.0" y2="230" stroke="#e5e5e5" stroke-width="1"/><line x1="88.0" y1="16" x2="88.0" y2="230" stroke="#e5e5e5" stroke-width="1"/><line x1="106.0" y1="16" x2="106.0" y2="230" stroke="#e5e5e5" stroke-width="1"/><line x1="124.0" y1="16" x2="124.0" y2="230" stroke="#e5e5e5" stroke-width="1"/><line x1="142.0" y1="16" x2="142.0" y2="230" stroke="#e5e5e5" stroke-width="1"/><line x1="160.0" y1="16" x2="160.0" y2="230" stroke="#e5e5e5" stroke-width="1"/><line x1="178.0" y1="16" x2="178.0" y2="230" stroke="#e5e5e5" stroke-width="1"/><line x1="196.0" y1="16" x2="196.0" y2="230" stroke="#e5e5e5" stroke-width="1"/><line x1="214.0" y1="16" x2="214.0" y2="230" stroke="#e5e5e5" stroke-width="1"/><line x1="232.0" y1="16" x2="232.0" y2="230" stroke="#e5e5e5" stroke-width="1"/><line x1="250.0" y1="16" x2="250.0" y2="230" stroke="#e5e5e5" stroke-width="1"/><line x1="268.0" y1="16" x2="268.0" y2="230" stroke="#e5e5e5" stroke-width="1"/><line x1="286.0" y1="16" x2="286.0" y2="230" stroke="#e5e5e5" stroke-width="1"/><line x1="304.0" y1="16" x2="304.0" y2="230" stroke="#e5e5e5" stroke-width="1"/><line x1="34" y1="230.0" x2="304" y2="230.0" stroke="#e5e5e5" stroke-width="1"/><line x1="34" y1="208.6" x2="304" y2="208.6" stroke="#e5e5e5" stroke-width="1"/><line x1="34" y1="187.2" x2="304" y2="187.2" stroke="#e5e5e5" stroke-width="1"/><line x1="34" y1="165.8" x2="304" y2="165.8" stroke="#e5e5e5" stroke-width="1"/><line x1="34" y1="144.4" x2="304" y2="144.4" stroke="#e5e5e5" stroke-width="1"/><line x1="34" y1="123.0" x2="304" y2="123.0" stroke="#e5e5e5" stroke-width="1"/><line x1="34" y1="101.6" x2="304" y2="101.6" stroke="#e5e5e5" stroke-width="1"/><line x1="34" y1="80.2" x2="304" y2="80.2" stroke="#e5e5e5" stroke-width="1"/><line x1="34" y1="58.8" x2="304" y2="58.8" stroke="#e5e5e5" stroke-width="1"/><line x1="34" y1="37.4" x2="304" y2="37.4" stroke="#e5e5e5" stroke-width="1"/><line x1="34" y1="16.0" x2="304" y2="16.0" stroke="#e5e5e5" stroke-width="1"/>
  
    <line x1="88.0" y1="16" x2="88.0" y2="230" stroke="#888" stroke-width="1.3"/>
    <line x1="34" y1="230.0" x2="304" y2="230.0" stroke="#888" stroke-width="1.3"/>
    
  <path d="M189.2,-13.8 L190.6,-3.0 L192.0,7.4 L193.3,17.7 L194.7,27.6 L196.0,37.4 L197.3,46.9 L198.7,56.2 L200.1,65.2 L201.4,74.0 L202.8,82.5 L204.1,90.8 L205.4,98.9 L206.8,106.7 L208.2,114.3 L209.5,121.7 L210.8,128.8 L212.2,135.6 L213.5,142.2 L214.9,148.6 L216.2,154.8 L217.6,160.7 L219.0,166.3 L220.3,171.7 L221.7,176.9 L223.0,181.8 L224.3,186.5 L225.7,191.0 L227.0,195.2 L228.4,199.2 L229.8,202.9 L231.1,206.4 L232.4,209.7 L233.8,212.7 L235.2,215.4 L236.5,218.0 L237.8,220.2 L239.2,222.3 L240.6,224.1 L241.9,225.7 L243.2,227.0 L244.6,228.1 L246.0,228.9 L247.3,229.5 L248.7,229.9 L250.0,230.0 L251.3,229.9 L252.7,229.5 L254.0,228.9 L255.4,228.1 L256.8,227.0 L258.1,225.7 L259.5,224.1 L260.8,222.3 L262.2,220.2 L263.5,218.0 L264.9,215.4 L266.2,212.7 L267.6,209.7 L268.9,206.4 L270.2,202.9 L271.6,199.2 L272.9,195.2 L274.3,191.0 L275.6,186.5 L277.0,181.8 L278.3,176.9 L279.7,171.7 L281.0,166.3 L282.4,160.7 L283.8,154.8 L285.1,148.6 L286.5,142.2 L287.8,135.6 L289.1,128.8 L290.5,121.7 L291.8,114.3 L293.2,106.7 L294.6,98.9 L295.9,90.8 L297.2,82.5 L298.6,74.0 L299.9,65.2 L301.3,56.2 L302.6,46.9 L304.0,37.4" fill="none" stroke="#7c3aed" stroke-width="2.5"/>
  <circle cx="250.0" cy="230.0" r="3.5" fill="#7c3aed"/>
</svg>